<mxfile host="app.diagrams.net" agent="Mozilla/5.0 (Windows NT 10.0; Win64; x64) AppleWebKit/537.36 (KHTML, like Gecko) Chrome/127.0.0.0 Safari/537.36" version="24.7.6">
  <diagram name="Página-1" id="ejVhocozIvzA3BKeOqc_">
    <mxGraphModel dx="1050" dy="557" grid="1" gridSize="10" guides="1" tooltips="1" connect="1" arrows="1" fold="1" page="1" pageScale="1" pageWidth="827" pageHeight="1169" math="0" shadow="0">
      <root>
        <mxCell id="0" />
        <mxCell id="1" parent="0" />
        <mxCell id="l4ibpFc4FODk0XAlu2Bs-5" value="CHAT" style="swimlane;fontStyle=0;childLayout=stackLayout;horizontal=1;startSize=30;horizontalStack=0;resizeParent=1;resizeParentMax=0;resizeLast=0;collapsible=1;marginBottom=0;whiteSpace=wrap;html=1;" vertex="1" parent="1">
          <mxGeometry x="340" y="230" width="140" height="60" as="geometry" />
        </mxCell>
        <mxCell id="l4ibpFc4FODk0XAlu2Bs-9" value="USUARIO" style="swimlane;fontStyle=0;childLayout=stackLayout;horizontal=1;startSize=30;horizontalStack=0;resizeParent=1;resizeParentMax=0;resizeLast=0;collapsible=1;marginBottom=0;whiteSpace=wrap;html=1;" vertex="1" parent="1">
          <mxGeometry x="10" y="220" width="140" height="60" as="geometry" />
        </mxCell>
        <mxCell id="l4ibpFc4FODk0XAlu2Bs-12" value="." style="text;strokeColor=none;fillColor=none;align=left;verticalAlign=middle;spacingLeft=4;spacingRight=4;overflow=hidden;points=[[0,0.5],[1,0.5]];portConstraint=eastwest;rotatable=0;whiteSpace=wrap;html=1;" vertex="1" parent="l4ibpFc4FODk0XAlu2Bs-9">
          <mxGeometry y="30" width="140" height="30" as="geometry" />
        </mxCell>
        <mxCell id="l4ibpFc4FODk0XAlu2Bs-18" value="ARRENDATARIO" style="swimlane;fontStyle=0;childLayout=stackLayout;horizontal=1;startSize=30;horizontalStack=0;resizeParent=1;resizeParentMax=0;resizeLast=0;collapsible=1;marginBottom=0;whiteSpace=wrap;html=1;" vertex="1" parent="1">
          <mxGeometry x="190" y="90" width="140" height="60" as="geometry" />
        </mxCell>
        <mxCell id="l4ibpFc4FODk0XAlu2Bs-19" value="." style="text;strokeColor=none;fillColor=none;align=left;verticalAlign=middle;spacingLeft=4;spacingRight=4;overflow=hidden;points=[[0,0.5],[1,0.5]];portConstraint=eastwest;rotatable=0;whiteSpace=wrap;html=1;" vertex="1" parent="l4ibpFc4FODk0XAlu2Bs-18">
          <mxGeometry y="30" width="140" height="30" as="geometry" />
        </mxCell>
        <mxCell id="l4ibpFc4FODk0XAlu2Bs-23" value="MAQUINA" style="swimlane;fontStyle=0;childLayout=stackLayout;horizontal=1;startSize=30;horizontalStack=0;resizeParent=1;resizeParentMax=0;resizeLast=0;collapsible=1;marginBottom=0;whiteSpace=wrap;html=1;" vertex="1" parent="1">
          <mxGeometry x="190" y="370" width="140" height="60" as="geometry" />
        </mxCell>
        <mxCell id="l4ibpFc4FODk0XAlu2Bs-24" value="." style="text;strokeColor=none;fillColor=none;align=left;verticalAlign=middle;spacingLeft=4;spacingRight=4;overflow=hidden;points=[[0,0.5],[1,0.5]];portConstraint=eastwest;rotatable=0;whiteSpace=wrap;html=1;" vertex="1" parent="l4ibpFc4FODk0XAlu2Bs-23">
          <mxGeometry y="30" width="140" height="30" as="geometry" />
        </mxCell>
        <mxCell id="l4ibpFc4FODk0XAlu2Bs-25" value="NFT" style="swimlane;fontStyle=0;childLayout=stackLayout;horizontal=1;startSize=20;horizontalStack=0;resizeParent=1;resizeParentMax=0;resizeLast=0;collapsible=1;marginBottom=0;whiteSpace=wrap;html=1;" vertex="1" parent="1">
          <mxGeometry x="540" y="375" width="140" height="50" as="geometry" />
        </mxCell>
        <mxCell id="l4ibpFc4FODk0XAlu2Bs-26" value="." style="text;strokeColor=none;fillColor=none;align=left;verticalAlign=middle;spacingLeft=4;spacingRight=4;overflow=hidden;points=[[0,0.5],[1,0.5]];portConstraint=eastwest;rotatable=0;whiteSpace=wrap;html=1;" vertex="1" parent="l4ibpFc4FODk0XAlu2Bs-25">
          <mxGeometry y="20" width="140" height="30" as="geometry" />
        </mxCell>
        <mxCell id="l4ibpFc4FODk0XAlu2Bs-27" value="EMPRESA" style="swimlane;fontStyle=0;childLayout=stackLayout;horizontal=1;startSize=30;horizontalStack=0;resizeParent=1;resizeParentMax=0;resizeLast=0;collapsible=1;marginBottom=0;whiteSpace=wrap;html=1;" vertex="1" parent="1">
          <mxGeometry x="540" y="110" width="140" height="60" as="geometry" />
        </mxCell>
        <mxCell id="l4ibpFc4FODk0XAlu2Bs-28" value="" style="endArrow=classic;html=1;rounded=0;" edge="1" parent="1" source="l4ibpFc4FODk0XAlu2Bs-9" target="l4ibpFc4FODk0XAlu2Bs-23">
          <mxGeometry width="50" height="50" relative="1" as="geometry">
            <mxPoint x="390" y="320" as="sourcePoint" />
            <mxPoint x="440" y="270" as="targetPoint" />
          </mxGeometry>
        </mxCell>
        <mxCell id="l4ibpFc4FODk0XAlu2Bs-29" value="" style="endArrow=classic;html=1;rounded=0;" edge="1" parent="1" source="l4ibpFc4FODk0XAlu2Bs-9" target="l4ibpFc4FODk0XAlu2Bs-18">
          <mxGeometry width="50" height="50" relative="1" as="geometry">
            <mxPoint x="126" y="290" as="sourcePoint" />
            <mxPoint x="234" y="380" as="targetPoint" />
          </mxGeometry>
        </mxCell>
        <mxCell id="l4ibpFc4FODk0XAlu2Bs-30" value="" style="endArrow=classic;html=1;rounded=0;" edge="1" parent="1" source="l4ibpFc4FODk0XAlu2Bs-23" target="l4ibpFc4FODk0XAlu2Bs-5">
          <mxGeometry width="50" height="50" relative="1" as="geometry">
            <mxPoint x="136" y="300" as="sourcePoint" />
            <mxPoint x="244" y="390" as="targetPoint" />
          </mxGeometry>
        </mxCell>
        <mxCell id="l4ibpFc4FODk0XAlu2Bs-31" value="" style="endArrow=classic;html=1;rounded=0;entryX=0.614;entryY=0.063;entryDx=0;entryDy=0;entryPerimeter=0;" edge="1" parent="1" source="l4ibpFc4FODk0XAlu2Bs-27" target="l4ibpFc4FODk0XAlu2Bs-5">
          <mxGeometry width="50" height="50" relative="1" as="geometry">
            <mxPoint x="146" y="310" as="sourcePoint" />
            <mxPoint x="254" y="400" as="targetPoint" />
          </mxGeometry>
        </mxCell>
        <mxCell id="l4ibpFc4FODk0XAlu2Bs-32" value="" style="endArrow=classic;html=1;rounded=0;" edge="1" parent="1" source="l4ibpFc4FODk0XAlu2Bs-5" target="l4ibpFc4FODk0XAlu2Bs-25">
          <mxGeometry width="50" height="50" relative="1" as="geometry">
            <mxPoint x="156" y="320" as="sourcePoint" />
            <mxPoint x="264" y="410" as="targetPoint" />
          </mxGeometry>
        </mxCell>
        <mxCell id="l4ibpFc4FODk0XAlu2Bs-33" value="El usuario logrará acceder al uso del chatbot siempre y cuando logre conectarse desde un ordenador o celular inteligente.&lt;div&gt;Las máquinas para que se ejecute el chabot deben se de conocimiento de la empresa creadora.&lt;/div&gt;&lt;div&gt;El uso del chatbot tiene como servicios y recompensas la generación de NFT luego tener un histórico de uso considerable y haber realizado el pago de la membresía.&lt;/div&gt;" style="text;html=1;align=center;verticalAlign=middle;whiteSpace=wrap;rounded=0;" vertex="1" parent="1">
          <mxGeometry x="120" y="500" width="610" height="30" as="geometry" />
        </mxCell>
        <mxCell id="l4ibpFc4FODk0XAlu2Bs-34" value="Localflow" style="text;html=1;align=center;verticalAlign=middle;whiteSpace=wrap;rounded=0;fontStyle=1;fontSize=16;" vertex="1" parent="1">
          <mxGeometry x="384" y="40" width="60" height="10" as="geometry" />
        </mxCell>
      </root>
    </mxGraphModel>
  </diagram>
</mxfile>
